{
	"asset":{
		"generator":"Khronos glTF Blender I/O v4.5.48",
		"version":"2.0"
	},
	"scene":0,
	"scenes":[
		{
			"name":"Scene",
			"nodes":[
				1,
				2,
				3,
				4,
				5,
				6,
				7
			]
		}
	],
	"nodes":[
		{
			"mesh":0,
			"name":"grid_surface",
			"scale":[
				0.23391366004943848,
				1,
				0.2320675104856491
			],
			"translation":[
				0,
				0.017400000244379044,
				0
			]
		},
		{
			"children":[
				0
			],
			"mesh":1,
			"name":"board"
		},
		{
			"mesh":2,
			"name":"queen",
			"translation":[
				0,
				0,
				-1
			]
		},
		{
			"mesh":3,
			"name":"king",
			"translation":[
				-1,
				0,
				-1
			]
		},
		{
			"mesh":4,
			"name":"knight",
			"translation":[
				0,
				0,
				-0.75
			]
		},
		{
			"mesh":5,
			"name":"rook",
			"translation":[
				1,
				0,
				-1
			]
		},
		{
			"mesh":6,
			"name":"pawn",
			"translation":[
				1,
				0,
				-0.75
			]
		},
		{
			"mesh":7,
			"name":"bishop",
			"rotation":[
				0,
				0.7071068286895752,
				0,
				0.7071068286895752
			],
			"translation":[
				-1,
				0,
				-0.75
			]
		}
	],
	"materials":[
		{
			"doubleSided":true,
			"name":"chess_set_board",
			"normalTexture":{
				"index":0
			},
			"pbrMetallicRoughness":{
				"baseColorTexture":{
					"index":1
				},
				"metallicFactor":0,
				"metallicRoughnessTexture":{
					"index":2
				}
			}
		},
		{
			"doubleSided":true,
			"name":"chess_set_pieces_black",
			"normalTexture":{
				"index":3
			},
			"pbrMetallicRoughness":{
				"baseColorTexture":{
					"index":4
				},
				"metallicFactor":0,
				"metallicRoughnessTexture":{
					"index":5
				}
			}
		}
	],
	"meshes":[
		{
			"name":"Plane",
			"primitives":[
				{
					"attributes":{
						"POSITION":0,
						"NORMAL":1,
						"TEXCOORD_0":2
					},
					"indices":3
				}
			]
		},
		{
			"name":"Cube.004",
			"primitives":[
				{
					"attributes":{
						"POSITION":4,
						"NORMAL":5,
						"TEXCOORD_0":6
					},
					"indices":7,
					"material":0
				}
			]
		},
		{
			"name":"Cylinder.023",
			"primitives":[
				{
					"attributes":{
						"POSITION":8,
						"NORMAL":9,
						"TEXCOORD_0":10
					},
					"indices":11,
					"material":1
				}
			]
		},
		{
			"name":"Cylinder.024",
			"primitives":[
				{
					"attributes":{
						"POSITION":12,
						"NORMAL":13,
						"TEXCOORD_0":14,
						"TEXCOORD_1":15
					},
					"indices":16,
					"material":1
				}
			]
		},
		{
			"name":"mesh.008",
			"primitives":[
				{
					"attributes":{
						"POSITION":17,
						"NORMAL":18,
						"TEXCOORD_0":19
					},
					"indices":20,
					"material":1
				}
			]
		},
		{
			"name":"ChessRook.008",
			"primitives":[
				{
					"attributes":{
						"POSITION":21,
						"NORMAL":22,
						"TEXCOORD_0":23
					},
					"indices":24,
					"material":1
				}
			]
		},
		{
			"name":"Cylinder.027",
			"primitives":[
				{
					"attributes":{
						"POSITION":25,
						"NORMAL":26,
						"TEXCOORD_0":27
					},
					"indices":28,
					"material":1
				}
			]
		},
		{
			"name":"Cylinder.022",
			"primitives":[
				{
					"attributes":{
						"POSITION":29,
						"NORMAL":30,
						"TEXCOORD_0":31
					},
					"indices":32,
					"material":1
				},
				{
					"attributes":{
						"POSITION":33,
						"NORMAL":34,
						"TEXCOORD_0":35
					},
					"indices":36,
					"material":1
				}
			]
		}
	],
	"textures":[
		{
			"sampler":0,
			"source":0
		},
		{
			"sampler":0,
			"source":1
		},
		{
			"sampler":0,
			"source":2
		},
		{
			"sampler":0,
			"source":3
		},
		{
			"sampler":0,
			"source":4
		},
		{
			"sampler":0,
			"source":5
		}
	],
	"images":[
		{
			"mimeType":"image/png",
			"name":"chess_set_board_nor_gl",
			"uri":"textures/chess_set_board_nor_gl.png"
		},
		{
			"mimeType":"image/png",
			"name":"chess_set_board_diff",
			"uri":"textures/chess_set_board_diff.png"
		},
		{
			"mimeType":"image/png",
			"name":"chess_set_board_rough",
			"uri":"textures/chess_set_board_rough.png"
		},
		{
			"mimeType":"image/png",
			"name":"chess_set_pieces_black_nor_gl",
			"uri":"textures/chess_set_pieces_black_nor_gl.png"
		},
		{
			"mimeType":"image/png",
			"name":"chess_set_pieces_white_diff",
			"uri":"textures/chess_set_pieces_white_diff.png"
		},
		{
			"mimeType":"image/png",
			"name":"chess_set_pieces_black_rough",
			"uri":"textures/chess_set_pieces_black_rough.png"
		}
	],
	"accessors":[
		{
			"bufferView":0,
			"componentType":5126,
			"count":4,
			"max":[
				1,
				0,
				1
			],
			"min":[
				-1,
				0,
				-1
			],
			"type":"VEC3"
		},
		{
			"bufferView":1,
			"componentType":5126,
			"count":4,
			"type":"VEC3"
		},
		{
			"bufferView":2,
			"componentType":5126,
			"count":4,
			"type":"VEC2"
		},
		{
			"bufferView":3,
			"componentType":5123,
			"count":6,
			"type":"SCALAR"
		},
		{
			"bufferView":4,
			"componentType":5126,
			"count":1526,
			"max":[
				0.27661898732185364,
				0.017392585054039955,
				0.27661898732185364
			],
			"min":[
				-0.27661898732185364,
				4.2891606426564977e-05,
				-0.27661898732185364
			],
			"type":"VEC3"
		},
		{
			"bufferView":5,
			"componentType":5126,
			"count":1526,
			"type":"VEC3"
		},
		{
			"bufferView":6,
			"componentType":5126,
			"count":1526,
			"type":"VEC2"
		},
		{
			"bufferView":7,
			"componentType":5123,
			"count":6624,
			"type":"SCALAR"
		},
		{
			"bufferView":8,
			"componentType":5126,
			"count":1827,
			"max":[
				0.020285282284021378,
				0.09045390784740448,
				0.020381664857268333
			],
			"min":[
				-0.02029527723789215,
				-0.00026654338580556214,
				-0.020382003858685493
			],
			"type":"VEC3"
		},
		{
			"bufferView":9,
			"componentType":5126,
			"count":1827,
			"type":"VEC3"
		},
		{
			"bufferView":10,
			"componentType":5126,
			"count":1827,
			"type":"VEC2"
		},
		{
			"bufferView":11,
			"componentType":5123,
			"count":8820,
			"type":"SCALAR"
		},
		{
			"bufferView":12,
			"componentType":5126,
			"count":2643,
			"max":[
				0.020774858072400093,
				0.09500318765640259,
				0.02085612155497074
			],
			"min":[
				-0.02075229398906231,
				0,
				-0.02086399495601654
			],
			"type":"VEC3"
		},
		{
			"bufferView":13,
			"componentType":5126,
			"count":2643,
			"type":"VEC3"
		},
		{
			"bufferView":14,
			"componentType":5126,
			"count":2643,
			"type":"VEC2"
		},
		{
			"bufferView":15,
			"componentType":5126,
			"count":2643,
			"type":"VEC2"
		},
		{
			"bufferView":16,
			"componentType":5123,
			"count":12516,
			"type":"SCALAR"
		},
		{
			"bufferView":17,
			"componentType":5126,
			"count":1705,
			"max":[
				0.019391505047678947,
				0.07499857991933823,
				0.02099723182618618
			],
			"min":[
				-0.019403478130698204,
				-3.755149080575393e-09,
				-0.024384917691349983
			],
			"type":"VEC3"
		},
		{
			"bufferView":18,
			"componentType":5126,
			"count":1705,
			"type":"VEC3"
		},
		{
			"bufferView":19,
			"componentType":5126,
			"count":1705,
			"type":"VEC2"
		},
		{
			"bufferView":20,
			"componentType":5123,
			"count":7986,
			"type":"SCALAR"
		},
		{
			"bufferView":21,
			"componentType":5126,
			"count":2016,
			"max":[
				0.018329130485653877,
				0.060513511300086975,
				0.018136857077479362
			],
			"min":[
				-0.018426168709993362,
				-5.737451647291891e-05,
				-0.018561260774731636
			],
			"type":"VEC3"
		},
		{
			"bufferView":22,
			"componentType":5126,
			"count":2016,
			"type":"VEC3"
		},
		{
			"bufferView":23,
			"componentType":5126,
			"count":2016,
			"type":"VEC2"
		},
		{
			"bufferView":24,
			"componentType":5123,
			"count":8928,
			"type":"SCALAR"
		},
		{
			"bufferView":25,
			"componentType":5126,
			"count":1028,
			"max":[
				0.014420497231185436,
				0.053703341633081436,
				0.014433925040066242
			],
			"min":[
				-0.014483553357422352,
				-7.083472031155225e-09,
				-0.01444040797650814
			],
			"type":"VEC3"
		},
		{
			"bufferView":26,
			"componentType":5126,
			"count":1028,
			"type":"VEC3"
		},
		{
			"bufferView":27,
			"componentType":5126,
			"count":1028,
			"type":"VEC2"
		},
		{
			"bufferView":28,
			"componentType":5123,
			"count":4920,
			"type":"SCALAR"
		},
		{
			"bufferView":29,
			"componentType":5126,
			"count":1738,
			"max":[
				0.016068587079644203,
				0.08581218123435974,
				0.0161648690700531
			],
			"min":[
				-0.01612257771193981,
				0,
				-0.016050374135375023
			],
			"type":"VEC3"
		},
		{
			"bufferView":30,
			"componentType":5126,
			"count":1738,
			"type":"VEC3"
		},
		{
			"bufferView":31,
			"componentType":5126,
			"count":1738,
			"type":"VEC2"
		},
		{
			"bufferView":32,
			"componentType":5123,
			"count":8334,
			"type":"SCALAR"
		},
		{
			"bufferView":33,
			"componentType":5126,
			"count":100,
			"max":[
				0.0057170637883245945,
				0.07082633674144745,
				0.010079539380967617
			],
			"min":[
				-0.0012493443209677935,
				0.06326215714216232,
				-0.010072479955852032
			],
			"type":"VEC3"
		},
		{
			"bufferView":34,
			"componentType":5126,
			"count":100,
			"type":"VEC3"
		},
		{
			"bufferView":35,
			"componentType":5126,
			"count":100,
			"type":"VEC2"
		},
		{
			"bufferView":36,
			"componentType":5123,
			"count":438,
			"type":"SCALAR"
		}
	],
	"bufferViews":[
		{
			"buffer":0,
			"byteLength":48,
			"byteOffset":0,
			"target":34962
		},
		{
			"buffer":0,
			"byteLength":48,
			"byteOffset":48,
			"target":34962
		},
		{
			"buffer":0,
			"byteLength":32,
			"byteOffset":96,
			"target":34962
		},
		{
			"buffer":0,
			"byteLength":12,
			"byteOffset":128,
			"target":34963
		},
		{
			"buffer":0,
			"byteLength":18312,
			"byteOffset":140,
			"target":34962
		},
		{
			"buffer":0,
			"byteLength":18312,
			"byteOffset":18452,
			"target":34962
		},
		{
			"buffer":0,
			"byteLength":12208,
			"byteOffset":36764,
			"target":34962
		},
		{
			"buffer":0,
			"byteLength":13248,
			"byteOffset":48972,
			"target":34963
		},
		{
			"buffer":0,
			"byteLength":21924,
			"byteOffset":62220,
			"target":34962
		},
		{
			"buffer":0,
			"byteLength":21924,
			"byteOffset":84144,
			"target":34962
		},
		{
			"buffer":0,
			"byteLength":14616,
			"byteOffset":106068,
			"target":34962
		},
		{
			"buffer":0,
			"byteLength":17640,
			"byteOffset":120684,
			"target":34963
		},
		{
			"buffer":0,
			"byteLength":31716,
			"byteOffset":138324,
			"target":34962
		},
		{
			"buffer":0,
			"byteLength":31716,
			"byteOffset":170040,
			"target":34962
		},
		{
			"buffer":0,
			"byteLength":21144,
			"byteOffset":201756,
			"target":34962
		},
		{
			"buffer":0,
			"byteLength":21144,
			"byteOffset":222900,
			"target":34962
		},
		{
			"buffer":0,
			"byteLength":25032,
			"byteOffset":244044,
			"target":34963
		},
		{
			"buffer":0,
			"byteLength":20460,
			"byteOffset":269076,
			"target":34962
		},
		{
			"buffer":0,
			"byteLength":20460,
			"byteOffset":289536,
			"target":34962
		},
		{
			"buffer":0,
			"byteLength":13640,
			"byteOffset":309996,
			"target":34962
		},
		{
			"buffer":0,
			"byteLength":15972,
			"byteOffset":323636,
			"target":34963
		},
		{
			"buffer":0,
			"byteLength":24192,
			"byteOffset":339608,
			"target":34962
		},
		{
			"buffer":0,
			"byteLength":24192,
			"byteOffset":363800,
			"target":34962
		},
		{
			"buffer":0,
			"byteLength":16128,
			"byteOffset":387992,
			"target":34962
		},
		{
			"buffer":0,
			"byteLength":17856,
			"byteOffset":404120,
			"target":34963
		},
		{
			"buffer":0,
			"byteLength":12336,
			"byteOffset":421976,
			"target":34962
		},
		{
			"buffer":0,
			"byteLength":12336,
			"byteOffset":434312,
			"target":34962
		},
		{
			"buffer":0,
			"byteLength":8224,
			"byteOffset":446648,
			"target":34962
		},
		{
			"buffer":0,
			"byteLength":9840,
			"byteOffset":454872,
			"target":34963
		},
		{
			"buffer":0,
			"byteLength":20856,
			"byteOffset":464712,
			"target":34962
		},
		{
			"buffer":0,
			"byteLength":20856,
			"byteOffset":485568,
			"target":34962
		},
		{
			"buffer":0,
			"byteLength":13904,
			"byteOffset":506424,
			"target":34962
		},
		{
			"buffer":0,
			"byteLength":16668,
			"byteOffset":520328,
			"target":34963
		},
		{
			"buffer":0,
			"byteLength":1200,
			"byteOffset":536996,
			"target":34962
		},
		{
			"buffer":0,
			"byteLength":1200,
			"byteOffset":538196,
			"target":34962
		},
		{
			"buffer":0,
			"byteLength":800,
			"byteOffset":539396,
			"target":34962
		},
		{
			"buffer":0,
			"byteLength":876,
			"byteOffset":540196,
			"target":34963
		}
	],
	"samplers":[
		{
			"magFilter":9729,
			"minFilter":9987
		}
	],
	"buffers":[
		{
			"byteLength":541072,
			"uri":"chess_set_v2.bin"
		}
	]
}
