{
	"asset":{
		"generator":"Khronos glTF Blender I/O v4.5.48",
		"version":"2.0"
	},
	"scene":0,
	"scenes":[
		{
			"name":"Scene",
			"nodes":[
				1,
				2,
				3,
				4,
				5,
				6,
				7
			]
		}
	],
	"nodes":[
		{
			"mesh":0,
			"name":"grid_surface",
			"scale":[
				0.23149999976158142,
				1,
				0.23100000619888306
			],
			"translation":[
				-0.23141616582870483,
				0.017400000244379044,
				-0.23057368397712708
			]
		},
		{
			"children":[
				0
			],
			"mesh":1,
			"name":"board"
		},
		{
			"mesh":2,
			"name":"queen",
			"translation":[
				0,
				0,
				-1
			]
		},
		{
			"mesh":3,
			"name":"king",
			"translation":[
				-1,
				0,
				-1
			]
		},
		{
			"mesh":4,
			"name":"knight",
			"translation":[
				0,
				0,
				-0.75
			]
		},
		{
			"mesh":5,
			"name":"rook",
			"translation":[
				1,
				0,
				-1
			]
		},
		{
			"mesh":6,
			"name":"pawn",
			"translation":[
				1,
				0,
				-0.75
			]
		},
		{
			"mesh":7,
			"name":"bishop",
			"rotation":[
				0,
				0.7071068286895752,
				0,
				0.7071068286895752
			],
			"translation":[
				-1,
				0,
				-0.75
			]
		}
	],
	"materials":[
		{
			"doubleSided":true,
			"name":"chess_set_board",
			"normalTexture":{
				"index":0
			},
			"pbrMetallicRoughness":{
				"baseColorTexture":{
					"index":1
				},
				"metallicFactor":0,
				"metallicRoughnessTexture":{
					"index":2
				}
			}
		},
		{
			"doubleSided":true,
			"name":"chess_set_pieces_black",
			"normalTexture":{
				"index":3
			},
			"pbrMetallicRoughness":{
				"baseColorTexture":{
					"index":4
				},
				"metallicFactor":0,
				"metallicRoughnessTexture":{
					"index":5
				}
			}
		}
	],
	"meshes":[
		{
			"name":"Plane",
			"primitives":[
				{
					"attributes":{
						"POSITION":0,
						"NORMAL":1,
						"TEXCOORD_0":2,
						"TANGENT":3
					},
					"indices":4
				}
			]
		},
		{
			"name":"Cube.004",
			"primitives":[
				{
					"attributes":{
						"POSITION":5,
						"NORMAL":6,
						"TEXCOORD_0":7,
						"TANGENT":8
					},
					"indices":9,
					"material":0
				}
			]
		},
		{
			"name":"Cylinder.023",
			"primitives":[
				{
					"attributes":{
						"POSITION":10,
						"NORMAL":11,
						"TEXCOORD_0":12,
						"TANGENT":13
					},
					"indices":14,
					"material":1
				}
			]
		},
		{
			"name":"Cylinder.024",
			"primitives":[
				{
					"attributes":{
						"POSITION":15,
						"NORMAL":16,
						"TEXCOORD_0":17,
						"TEXCOORD_1":18,
						"TANGENT":19
					},
					"indices":20,
					"material":1
				}
			]
		},
		{
			"name":"mesh.008",
			"primitives":[
				{
					"attributes":{
						"POSITION":21,
						"NORMAL":22,
						"TEXCOORD_0":23,
						"TANGENT":24
					},
					"indices":25,
					"material":1
				}
			]
		},
		{
			"name":"ChessRook.008",
			"primitives":[
				{
					"attributes":{
						"POSITION":26,
						"NORMAL":27,
						"TEXCOORD_0":28,
						"TANGENT":29
					},
					"indices":30,
					"material":1
				}
			]
		},
		{
			"name":"Cylinder.027",
			"primitives":[
				{
					"attributes":{
						"POSITION":31,
						"NORMAL":32,
						"TEXCOORD_0":33,
						"TANGENT":34
					},
					"indices":35,
					"material":1
				}
			]
		},
		{
			"name":"Cylinder.022",
			"primitives":[
				{
					"attributes":{
						"POSITION":36,
						"NORMAL":37,
						"TEXCOORD_0":38,
						"TANGENT":39
					},
					"indices":40,
					"material":1
				},
				{
					"attributes":{
						"POSITION":41,
						"NORMAL":42,
						"TEXCOORD_0":43,
						"TANGENT":44
					},
					"indices":45,
					"material":1
				}
			]
		}
	],
	"textures":[
		{
			"sampler":0,
			"source":0
		},
		{
			"sampler":0,
			"source":1
		},
		{
			"sampler":0,
			"source":2
		},
		{
			"sampler":0,
			"source":3
		},
		{
			"sampler":0,
			"source":4
		},
		{
			"sampler":0,
			"source":5
		}
	],
	"images":[
		{
			"mimeType":"image/png",
			"name":"chess_set_board_nor_gl",
			"uri":"textures/chess_set_board_nor_gl.png"
		},
		{
			"mimeType":"image/png",
			"name":"chess_set_board_diff",
			"uri":"textures/chess_set_board_diff.png"
		},
		{
			"mimeType":"image/png",
			"name":"chess_set_board_rough",
			"uri":"textures/chess_set_board_rough.png"
		},
		{
			"mimeType":"image/png",
			"name":"chess_set_pieces_black_nor_gl",
			"uri":"textures/chess_set_pieces_black_nor_gl.png"
		},
		{
			"mimeType":"image/png",
			"name":"chess_set_pieces_white_diff",
			"uri":"textures/chess_set_pieces_white_diff.png"
		},
		{
			"mimeType":"image/png",
			"name":"chess_set_pieces_black_rough",
			"uri":"textures/chess_set_pieces_black_rough.png"
		}
	],
	"accessors":[
		{
			"bufferView":0,
			"componentType":5126,
			"count":4,
			"max":[
				2,
				0,
				2
			],
			"min":[
				0,
				0,
				-5.960464477539063e-08
			],
			"type":"VEC3"
		},
		{
			"bufferView":1,
			"componentType":5126,
			"count":4,
			"type":"VEC3"
		},
		{
			"bufferView":2,
			"componentType":5126,
			"count":4,
			"type":"VEC2"
		},
		{
			"bufferView":3,
			"componentType":5126,
			"count":4,
			"type":"VEC4"
		},
		{
			"bufferView":4,
			"componentType":5123,
			"count":6,
			"type":"SCALAR"
		},
		{
			"bufferView":5,
			"componentType":5126,
			"count":1526,
			"max":[
				0.27661898732185364,
				0.017392585054039955,
				0.27661898732185364
			],
			"min":[
				-0.27661898732185364,
				4.2891606426564977e-05,
				-0.27661898732185364
			],
			"type":"VEC3"
		},
		{
			"bufferView":6,
			"componentType":5126,
			"count":1526,
			"type":"VEC3"
		},
		{
			"bufferView":7,
			"componentType":5126,
			"count":1526,
			"type":"VEC2"
		},
		{
			"bufferView":8,
			"componentType":5126,
			"count":1526,
			"type":"VEC4"
		},
		{
			"bufferView":9,
			"componentType":5123,
			"count":6624,
			"type":"SCALAR"
		},
		{
			"bufferView":10,
			"componentType":5126,
			"count":1827,
			"max":[
				0.020285282284021378,
				0.09045390784740448,
				0.020381664857268333
			],
			"min":[
				-0.02029527723789215,
				-0.00026654338580556214,
				-0.020382003858685493
			],
			"type":"VEC3"
		},
		{
			"bufferView":11,
			"componentType":5126,
			"count":1827,
			"type":"VEC3"
		},
		{
			"bufferView":12,
			"componentType":5126,
			"count":1827,
			"type":"VEC2"
		},
		{
			"bufferView":13,
			"componentType":5126,
			"count":1827,
			"type":"VEC4"
		},
		{
			"bufferView":14,
			"componentType":5123,
			"count":8820,
			"type":"SCALAR"
		},
		{
			"bufferView":15,
			"componentType":5126,
			"count":2643,
			"max":[
				0.020774858072400093,
				0.09500318765640259,
				0.02085612155497074
			],
			"min":[
				-0.02075229398906231,
				0,
				-0.02086399495601654
			],
			"type":"VEC3"
		},
		{
			"bufferView":16,
			"componentType":5126,
			"count":2643,
			"type":"VEC3"
		},
		{
			"bufferView":17,
			"componentType":5126,
			"count":2643,
			"type":"VEC2"
		},
		{
			"bufferView":18,
			"componentType":5126,
			"count":2643,
			"type":"VEC2"
		},
		{
			"bufferView":19,
			"componentType":5126,
			"count":2643,
			"type":"VEC4"
		},
		{
			"bufferView":20,
			"componentType":5123,
			"count":12516,
			"type":"SCALAR"
		},
		{
			"bufferView":21,
			"componentType":5126,
			"count":1705,
			"max":[
				0.019391505047678947,
				0.07499857991933823,
				0.02099723182618618
			],
			"min":[
				-0.019403478130698204,
				-3.755149080575393e-09,
				-0.024384917691349983
			],
			"type":"VEC3"
		},
		{
			"bufferView":22,
			"componentType":5126,
			"count":1705,
			"type":"VEC3"
		},
		{
			"bufferView":23,
			"componentType":5126,
			"count":1705,
			"type":"VEC2"
		},
		{
			"bufferView":24,
			"componentType":5126,
			"count":1705,
			"type":"VEC4"
		},
		{
			"bufferView":25,
			"componentType":5123,
			"count":7986,
			"type":"SCALAR"
		},
		{
			"bufferView":26,
			"componentType":5126,
			"count":2016,
			"max":[
				0.018329130485653877,
				0.060513511300086975,
				0.018136857077479362
			],
			"min":[
				-0.018426168709993362,
				-5.737451647291891e-05,
				-0.018561260774731636
			],
			"type":"VEC3"
		},
		{
			"bufferView":27,
			"componentType":5126,
			"count":2016,
			"type":"VEC3"
		},
		{
			"bufferView":28,
			"componentType":5126,
			"count":2016,
			"type":"VEC2"
		},
		{
			"bufferView":29,
			"componentType":5126,
			"count":2016,
			"type":"VEC4"
		},
		{
			"bufferView":30,
			"componentType":5123,
			"count":8928,
			"type":"SCALAR"
		},
		{
			"bufferView":31,
			"componentType":5126,
			"count":1028,
			"max":[
				0.014420497231185436,
				0.053703341633081436,
				0.014433925040066242
			],
			"min":[
				-0.014483553357422352,
				-7.083472031155225e-09,
				-0.01444040797650814
			],
			"type":"VEC3"
		},
		{
			"bufferView":32,
			"componentType":5126,
			"count":1028,
			"type":"VEC3"
		},
		{
			"bufferView":33,
			"componentType":5126,
			"count":1028,
			"type":"VEC2"
		},
		{
			"bufferView":34,
			"componentType":5126,
			"count":1028,
			"type":"VEC4"
		},
		{
			"bufferView":35,
			"componentType":5123,
			"count":4920,
			"type":"SCALAR"
		},
		{
			"bufferView":36,
			"componentType":5126,
			"count":1738,
			"max":[
				0.016068587079644203,
				0.08581218123435974,
				0.0161648690700531
			],
			"min":[
				-0.01612257771193981,
				0,
				-0.016050374135375023
			],
			"type":"VEC3"
		},
		{
			"bufferView":37,
			"componentType":5126,
			"count":1738,
			"type":"VEC3"
		},
		{
			"bufferView":38,
			"componentType":5126,
			"count":1738,
			"type":"VEC2"
		},
		{
			"bufferView":39,
			"componentType":5126,
			"count":1738,
			"type":"VEC4"
		},
		{
			"bufferView":40,
			"componentType":5123,
			"count":8334,
			"type":"SCALAR"
		},
		{
			"bufferView":41,
			"componentType":5126,
			"count":100,
			"max":[
				0.0057170637883245945,
				0.07082633674144745,
				0.010079539380967617
			],
			"min":[
				-0.0012493443209677935,
				0.06326215714216232,
				-0.010072479955852032
			],
			"type":"VEC3"
		},
		{
			"bufferView":42,
			"componentType":5126,
			"count":100,
			"type":"VEC3"
		},
		{
			"bufferView":43,
			"componentType":5126,
			"count":100,
			"type":"VEC2"
		},
		{
			"bufferView":44,
			"componentType":5126,
			"count":100,
			"type":"VEC4"
		},
		{
			"bufferView":45,
			"componentType":5123,
			"count":438,
			"type":"SCALAR"
		}
	],
	"bufferViews":[
		{
			"buffer":0,
			"byteLength":48,
			"byteOffset":0,
			"target":34962
		},
		{
			"buffer":0,
			"byteLength":48,
			"byteOffset":48,
			"target":34962
		},
		{
			"buffer":0,
			"byteLength":32,
			"byteOffset":96,
			"target":34962
		},
		{
			"buffer":0,
			"byteLength":64,
			"byteOffset":128,
			"target":34962
		},
		{
			"buffer":0,
			"byteLength":12,
			"byteOffset":192,
			"target":34963
		},
		{
			"buffer":0,
			"byteLength":18312,
			"byteOffset":204,
			"target":34962
		},
		{
			"buffer":0,
			"byteLength":18312,
			"byteOffset":18516,
			"target":34962
		},
		{
			"buffer":0,
			"byteLength":12208,
			"byteOffset":36828,
			"target":34962
		},
		{
			"buffer":0,
			"byteLength":24416,
			"byteOffset":49036,
			"target":34962
		},
		{
			"buffer":0,
			"byteLength":13248,
			"byteOffset":73452,
			"target":34963
		},
		{
			"buffer":0,
			"byteLength":21924,
			"byteOffset":86700,
			"target":34962
		},
		{
			"buffer":0,
			"byteLength":21924,
			"byteOffset":108624,
			"target":34962
		},
		{
			"buffer":0,
			"byteLength":14616,
			"byteOffset":130548,
			"target":34962
		},
		{
			"buffer":0,
			"byteLength":29232,
			"byteOffset":145164,
			"target":34962
		},
		{
			"buffer":0,
			"byteLength":17640,
			"byteOffset":174396,
			"target":34963
		},
		{
			"buffer":0,
			"byteLength":31716,
			"byteOffset":192036,
			"target":34962
		},
		{
			"buffer":0,
			"byteLength":31716,
			"byteOffset":223752,
			"target":34962
		},
		{
			"buffer":0,
			"byteLength":21144,
			"byteOffset":255468,
			"target":34962
		},
		{
			"buffer":0,
			"byteLength":21144,
			"byteOffset":276612,
			"target":34962
		},
		{
			"buffer":0,
			"byteLength":42288,
			"byteOffset":297756,
			"target":34962
		},
		{
			"buffer":0,
			"byteLength":25032,
			"byteOffset":340044,
			"target":34963
		},
		{
			"buffer":0,
			"byteLength":20460,
			"byteOffset":365076,
			"target":34962
		},
		{
			"buffer":0,
			"byteLength":20460,
			"byteOffset":385536,
			"target":34962
		},
		{
			"buffer":0,
			"byteLength":13640,
			"byteOffset":405996,
			"target":34962
		},
		{
			"buffer":0,
			"byteLength":27280,
			"byteOffset":419636,
			"target":34962
		},
		{
			"buffer":0,
			"byteLength":15972,
			"byteOffset":446916,
			"target":34963
		},
		{
			"buffer":0,
			"byteLength":24192,
			"byteOffset":462888,
			"target":34962
		},
		{
			"buffer":0,
			"byteLength":24192,
			"byteOffset":487080,
			"target":34962
		},
		{
			"buffer":0,
			"byteLength":16128,
			"byteOffset":511272,
			"target":34962
		},
		{
			"buffer":0,
			"byteLength":32256,
			"byteOffset":527400,
			"target":34962
		},
		{
			"buffer":0,
			"byteLength":17856,
			"byteOffset":559656,
			"target":34963
		},
		{
			"buffer":0,
			"byteLength":12336,
			"byteOffset":577512,
			"target":34962
		},
		{
			"buffer":0,
			"byteLength":12336,
			"byteOffset":589848,
			"target":34962
		},
		{
			"buffer":0,
			"byteLength":8224,
			"byteOffset":602184,
			"target":34962
		},
		{
			"buffer":0,
			"byteLength":16448,
			"byteOffset":610408,
			"target":34962
		},
		{
			"buffer":0,
			"byteLength":9840,
			"byteOffset":626856,
			"target":34963
		},
		{
			"buffer":0,
			"byteLength":20856,
			"byteOffset":636696,
			"target":34962
		},
		{
			"buffer":0,
			"byteLength":20856,
			"byteOffset":657552,
			"target":34962
		},
		{
			"buffer":0,
			"byteLength":13904,
			"byteOffset":678408,
			"target":34962
		},
		{
			"buffer":0,
			"byteLength":27808,
			"byteOffset":692312,
			"target":34962
		},
		{
			"buffer":0,
			"byteLength":16668,
			"byteOffset":720120,
			"target":34963
		},
		{
			"buffer":0,
			"byteLength":1200,
			"byteOffset":736788,
			"target":34962
		},
		{
			"buffer":0,
			"byteLength":1200,
			"byteOffset":737988,
			"target":34962
		},
		{
			"buffer":0,
			"byteLength":800,
			"byteOffset":739188,
			"target":34962
		},
		{
			"buffer":0,
			"byteLength":1600,
			"byteOffset":739988,
			"target":34962
		},
		{
			"buffer":0,
			"byteLength":876,
			"byteOffset":741588,
			"target":34963
		}
	],
	"samplers":[
		{
			"magFilter":9729,
			"minFilter":9987
		}
	],
	"buffers":[
		{
			"byteLength":742464,
			"uri":"chess_set_v2.bin"
		}
	]
}
